<svg width="31" height="31" viewBox="0 0 31 31" fill="none" xmlns="http://www.w3.org/2000/svg">
<path d="M25.5626 10.1195V9.15747C26.7631 8.44483 27.5399 7.12644 27.5399 5.70115V3.9908C27.5399 1.78161 25.7745 0 23.5854 0C21.3964 0 19.5957 1.78161 19.5957 3.9908V5.70115C19.5957 7.0908 20.3018 8.37356 21.5023 9.08621V10.1195C20.9727 10.2621 20.4784 10.4759 19.9841 10.7609C19.2073 8.94368 17.4066 7.66092 15.3235 7.66092C13.2756 7.66092 11.5456 8.87241 10.7335 10.654C10.2745 10.4402 9.81549 10.2264 9.35649 10.1195V9.15747C10.5569 8.44483 11.3337 7.12644 11.3337 5.70115V3.9908C11.3337 1.78161 9.56834 0 7.37927 0C5.1902 0 3.42483 1.78161 3.42483 3.9908V5.70115C3.42483 7.0908 4.13098 8.37356 5.33143 9.08621V10.1195C2.15376 11.046 0 13.9322 0 17.2816C0 17.5667 0.247153 17.8161 0.529613 17.8161H10.9806C11.0159 17.8161 11.0513 17.8161 11.0866 17.8161C11.5103 18.4931 12.1105 19.0632 12.8166 19.4908V21.0943C8.61503 22.2345 5.75512 26.0471 5.75512 30.4655C5.75512 30.7506 6.00228 31 6.28474 31H24.4681C24.7506 31 24.9977 30.7506 24.9977 30.4655C24.9977 26.0828 21.9966 22.1989 17.8303 21.0943V19.5621C18.5718 19.1345 19.172 18.5644 19.631 17.8517H30.4704C30.7528 17.8517 31 17.6023 31 17.3172C30.9647 13.9678 28.705 11.0103 25.5626 10.1195ZM1.05923 16.7828C1.27107 14.0034 3.24829 11.723 5.96697 11.0816C6.21412 11.0103 6.39066 10.7966 6.39066 10.5471V8.76552C6.39066 8.55172 6.28474 8.37356 6.1082 8.3023C5.11959 7.80345 4.48405 6.80575 4.48405 5.70115V3.9908C4.48405 2.38736 5.79043 1.06897 7.37927 1.06897C8.96811 1.06897 10.2745 2.38736 10.2745 3.9908V5.70115C10.2745 6.80575 9.60364 7.83908 8.61503 8.33793C8.4385 8.40919 8.29727 8.62299 8.29727 8.83678V10.5471C8.29727 10.7966 8.4738 11.0103 8.72096 11.0816C9.32118 11.2241 9.8861 11.4379 10.4157 11.723C10.3451 12.0793 10.3098 12.4356 10.3098 12.8276V15.108C10.3098 15.6782 10.4157 16.2483 10.5923 16.7828H1.05923ZM17.0535 18.7425C16.877 18.8138 16.7358 19.0276 16.7358 19.2414V21.5218C16.7358 21.7713 16.9123 21.9851 17.1595 22.0563C20.902 22.8759 23.656 26.154 23.9032 29.9667H6.81435C7.0262 26.154 9.70957 22.9471 13.4522 22.092C13.6993 22.0207 13.8759 21.8069 13.8759 21.5575V19.2057C13.8759 18.992 13.7699 18.8138 13.5934 18.7425C12.2164 18.0655 11.369 16.6759 11.369 15.1437V12.8632C11.369 10.6184 13.1697 8.83678 15.3588 8.83678C17.5478 8.83678 19.3485 10.654 19.3485 12.8632V15.108C19.3485 16.6402 18.4658 18.0655 17.0535 18.7425ZM20.1253 16.7828C20.3018 16.2483 20.4077 15.6782 20.4077 15.108V12.8276C20.4077 12.5069 20.3724 12.1506 20.3018 11.8655C20.8667 11.5092 21.5023 11.2598 22.1378 11.1172C22.385 11.046 22.5615 10.8322 22.5615 10.5828V8.80115C22.5615 8.58736 22.4556 8.40919 22.279 8.33793C21.2904 7.83908 20.6549 6.84138 20.6549 5.73678V4.02644C20.6549 2.42299 21.9613 1.1046 23.5501 1.1046C25.1389 1.1046 26.4453 2.42299 26.4453 4.02644V5.73678C26.4453 6.84138 25.7745 7.87471 24.7859 8.37356C24.6093 8.44483 24.4681 8.65862 24.4681 8.87241V10.5828C24.4681 10.8322 24.6446 11.046 24.8918 11.1172C27.6105 11.723 29.623 14.0747 29.8702 16.8184L20.1253 16.7828Z" fill="white"/>
</svg>
