<svg width="35" height="30" viewBox="0 0 35 30" fill="none" xmlns="http://www.w3.org/2000/svg">
<path d="M34.9939 19.5147C34.9712 19.3637 34.8896 19.2281 34.767 19.1376L22.097 9.77144L23.4255 7.9743C23.4903 7.98273 23.555 7.99001 23.6206 7.99001C23.698 7.99001 23.7757 7.98426 23.8535 7.97277C24.2628 7.91146 24.6234 7.69419 24.8694 7.36159L25.8419 6.04612C26.3496 5.35945 26.204 4.38731 25.5169 3.87959L20.6781 0.302561C19.991 -0.204776 19.0193 -0.0591656 18.5116 0.627501L17.5386 1.94336C17.1942 2.40969 17.1574 3.0044 17.3796 3.4987L12.1392 10.588C11.9993 10.5704 11.8572 10.5646 11.7142 10.5861C11.305 10.6474 10.9444 10.8647 10.6984 11.1973L9.7259 12.5127C9.47989 12.8453 9.37796 13.2542 9.43927 13.6634C9.50058 14.0727 9.71785 14.4333 10.0505 14.6793L14.8893 18.2563C15.1587 18.4555 15.4779 18.5602 15.807 18.5602C15.8844 18.5602 15.9622 18.5544 16.04 18.5429C16.4493 18.4816 16.8098 18.2643 17.0558 17.9317L18.0284 16.6159C18.2744 16.2833 18.3763 15.8744 18.315 15.4656C18.2935 15.3222 18.2464 15.1881 18.1885 15.0598L19.5197 13.2588L28.5177 19.9101L32.1897 22.6246C32.2924 22.7005 32.4123 22.7373 32.5311 22.7373C32.707 22.7373 32.881 22.6568 32.9936 22.5043L34.8877 19.9419C34.9785 19.8189 35.0165 19.6653 34.9939 19.5147ZM18.9373 12.1127C18.9373 12.1131 18.9369 12.1131 18.9373 12.1127L17.3846 14.2129L13.1841 11.108L18.1835 4.34516L22.384 7.4501L19.3024 11.6188L18.9373 12.1127ZM18.4637 2.62619L19.4362 1.31072C19.5147 1.20496 19.6358 1.14863 19.7581 1.14863C19.8404 1.14863 19.924 1.17392 19.9952 1.2268L24.8341 4.80383C25.0111 4.93488 25.0491 5.18587 24.918 5.3629L23.9455 6.67837C23.8819 6.7642 23.7888 6.82015 23.6834 6.83624C23.5765 6.85234 23.4726 6.82551 23.3868 6.76229L18.548 3.18526C18.3705 3.05383 18.3326 2.80322 18.4637 2.62619ZM17.1041 15.9319L16.1312 17.2478C16.0676 17.3336 15.9749 17.3895 15.8691 17.4056C15.7645 17.4217 15.6584 17.3953 15.5725 17.3317L10.7337 13.7546C10.6478 13.691 10.5919 13.5979 10.5758 13.4925C10.5601 13.3872 10.5861 13.2818 10.6498 13.196L11.6223 11.8801C11.7008 11.7743 11.8215 11.7184 11.9442 11.7184C12.0265 11.7184 12.1101 11.7437 12.1813 11.7966L17.0202 15.3736C17.106 15.4372 17.162 15.5303 17.1781 15.6357C17.1938 15.7411 17.1677 15.8464 17.1041 15.9319ZM21.4138 10.6961L29.9496 17.006L28.7388 18.6441L20.2029 12.3342L21.4138 10.6961ZM32.4108 21.3582L29.663 19.3269L30.8739 17.6888L33.6217 19.7201L32.4108 21.3582Z" fill="white"/>
<path d="M18.9209 23.3442H4.35993C4.04227 23.3442 3.78516 23.6014 3.78516 23.919V28.9004C3.78516 29.2181 4.04227 29.4752 4.35993 29.4752H18.9209C19.2386 29.4752 19.4957 29.2181 19.4957 28.9004V23.919C19.4957 23.6014 19.2386 23.3442 18.9209 23.3442ZM18.3462 28.3256H4.93471V24.4938H18.3462V28.3256Z" fill="white"/>
<path d="M3.9913 20.3987C4.26182 20.3987 4.50246 20.2071 4.55534 19.932C4.61512 19.6204 4.41088 19.3189 4.09897 19.2595L0.682879 18.605C0.369051 18.5429 0.0697835 18.7498 0.0103898 19.0614C-0.049387 19.3729 0.15485 19.6745 0.466763 19.7339L3.88285 20.3883C3.91926 20.3956 3.95566 20.3987 3.9913 20.3987Z" fill="white"/>
<path d="M0.564106 15.8491L4.92628 18.262C5.01441 18.3107 5.10983 18.3341 5.20409 18.3341C5.40641 18.3341 5.60298 18.2268 5.70759 18.0375C5.86125 17.7597 5.76086 17.4098 5.48305 17.2562L1.12087 14.8433C0.843064 14.6892 0.493216 14.79 0.339559 15.0678C0.185902 15.3456 0.286297 15.6955 0.564106 15.8491Z" fill="white"/>
<path d="M5.87123 15.8499C5.98465 15.9917 6.15172 16.0652 6.31994 16.0652C6.446 16.0652 6.57284 16.0238 6.67898 15.9388C6.92652 15.7403 6.96637 15.3786 6.76788 15.131L4.52587 12.333C4.32738 12.0855 3.96603 12.0456 3.71811 12.2441C3.47057 12.4426 3.43072 12.8043 3.62921 13.0519L5.87123 15.8499Z" fill="white"/>
</svg>
