<svg id="Слой_1" data-name="Слой 1" xmlns="http://www.w3.org/2000/svg" viewBox="0 0 45.54 45.27"><defs><style>.cls-1{fill:#101010;}.cls-2{fill:#fff;}.cls-3{fill:#e21113;}</style></defs><circle class="cls-1" cx="22.82" cy="22.64" r="22.59"/><path class="cls-2" d="M10.6,15.59v3.52h1.56l2.95-3.52H17.5v.54l-3.35,4,3.35,4v.54H15.11l-2.84-3.38H10.6v3.38H8.17V15.59Z"/><path class="cls-2" d="M22.3,24.66v-6.9H18.78V15.59h9.49v2.17H24.74v6.9Z"/><path class="cls-2" d="M9,27v1.25h.56l1-1.25h.85v.19l-1.19,1.42,1.19,1.42v.19h-.85l-1-1.2H9v1.2H8.12V27Z"/><path class="cls-2" d="M15.17,28.27a1.63,1.63,0,0,1-.06.45.91.91,0,0,1-.2.36,1,1,0,0,1-.4.25,1.81,1.81,0,0,1-.62.09h-.64a3.91,3.91,0,0,1-.48-.05v.87h-.86V27l.86-.07c.3,0,.6,0,.89,0h.14a2,2,0,0,1,.66.09,1.18,1.18,0,0,1,.43.24.94.94,0,0,1,.22.37,1.63,1.63,0,0,1,.06.45Zm-1.55.38a2.1,2.1,0,0,0,.4,0,.53.53,0,0,0,.2-.1.37.37,0,0,0,.08-.15c0-.06,0-.13,0-.2s0-.13,0-.19a.22.22,0,0,0-.08-.15.38.38,0,0,0-.19-.1,1.59,1.59,0,0,0-.37,0h-.4l-.49,0v.87l.43,0Z"/><path class="cls-2" d="M15.28,30.24v-.19l1.43-3h.86l1.43,3v.19h-.77L18,29.61H16.33l-.27.63Zm2.35-1.35-.49-1.1-.49,1.1Z"/><path class="cls-2" d="M22,27h.87v3.22H22V28.17L20.3,30.24h-.86V27h.86v2.07Zm-.12-1v.1a.66.66,0,0,1,0,.21.42.42,0,0,1-.11.18.57.57,0,0,1-.22.12,1.06,1.06,0,0,1-.34.05h0a1.06,1.06,0,0,1-.34-.05.57.57,0,0,1-.22-.12.42.42,0,0,1-.11-.18.66.66,0,0,1,0-.21V26h.43v.1a.14.14,0,0,0,.06.12.32.32,0,0,0,.21,0h0a.34.34,0,0,0,.21,0,.14.14,0,0,0,.06-.12V26Z"/><path class="cls-2" d="M24.38,27v1.25h1.68V27h.87v3.22h-.87V29H24.38v1.2h-.86V27Z"/><path class="cls-2" d="M30.15,27H31v3.22h-.86V28.17l-1.69,2.07H27.6V27h.86v2.07Zm4-1v.1a.66.66,0,0,1,0,.21.42.42,0,0,1-.11.18.57.57,0,0,1-.22.12,1.06,1.06,0,0,1-.34.05h0a1.06,1.06,0,0,1-.34-.05.57.57,0,0,1-.22-.12.42.42,0,0,1-.11-.18.66.66,0,0,1,0-.21V26h.43v.1a.14.14,0,0,0,.06.12.34.34,0,0,0,.21,0h0a.34.34,0,0,0,.21,0,.14.14,0,0,0,.06-.12V26Z"/><path class="cls-2" d="M34.23,27h.87v3.22h-.87V28.17l-1.68,2.07h-.87V27h.87v2.07Z"/><path class="cls-2" d="M36.24,29.21V29a1,1,0,0,1,.1-.49.75.75,0,0,1,.26-.27.87.87,0,0,1,.31-.1l.26,0a1.55,1.55,0,0,0,.28,0q.09,0,.09-.18a.22.22,0,0,0,0-.08s0-.05-.08-.07a.38.38,0,0,0-.18-.06l-.33,0a3.24,3.24,0,0,0-.62.05,4.26,4.26,0,0,0-.62.13v-.8a3.12,3.12,0,0,1,.53-.11,3.56,3.56,0,0,1,.57,0H37a2.66,2.66,0,0,1,.69.07,1.2,1.2,0,0,1,.44.21.71.71,0,0,1,.23.3,1.15,1.15,0,0,1,.07.36v.06a.88.88,0,0,1-.07.39.68.68,0,0,1-.16.26.91.91,0,0,1-.48.24l-.23,0h-.19a.28.28,0,0,0-.13,0,.26.26,0,0,0,0,.18v.12Zm-.05.67a.48.48,0,0,0,.1.29.46.46,0,0,0,.37.12h0a.47.47,0,0,0,.37-.12.48.48,0,0,0,.09-.29v-.06a.44.44,0,0,0,0-.16.33.33,0,0,0-.07-.13.47.47,0,0,0-.14-.08.53.53,0,0,0-.23,0h0a.53.53,0,0,0-.23,0,.47.47,0,0,0-.14.08.33.33,0,0,0-.07.13.45.45,0,0,0,0,.16Z"/><path class="cls-3" d="M38.53,19.5A4.15,4.15,0,0,1,36,23.12a.14.14,0,0,1-.17,0l-5.37-5.38c-.06-.05-.07-.09,0-.17a4.2,4.2,0,0,1,2.69-2.38A4,4,0,0,1,35,15.05a4.12,4.12,0,0,1,3.24,2.52A4.64,4.64,0,0,1,38.53,19.5Z"/><path class="cls-2" d="M30.13,18.44l5,5-.57.06a4.21,4.21,0,0,1-2.44-.62.11.11,0,0,0-.17,0l-1.67,1.67c-.17.17-.26.17-.44,0L29,23.71c-.16-.17-.16-.26,0-.42l1.68-1.69c.06-.05.06-.09,0-.16a4.15,4.15,0,0,1-.58-1.56,4.45,4.45,0,0,1,0-1.41Z"/></svg>