<svg width="25" height="32" viewBox="0 0 25 32" fill="none" xmlns="http://www.w3.org/2000/svg">
<path d="M24.3952 2H16.5323V0.6C16.5323 0.44087 16.4685 0.288258 16.3551 0.175736C16.2417 0.063214 16.0878 0 15.9274 0H8.66935C8.50894 0 8.3551 0.063214 8.24167 0.175736C8.12824 0.288258 8.06452 0.44087 8.06452 0.6V2H0.604839C0.444426 2 0.290583 2.06321 0.177153 2.17574C0.0637242 2.28826 0 2.44087 0 2.6V31.4C0 31.5591 0.0637242 31.7117 0.177153 31.8243C0.290583 31.9368 0.444426 32 0.604839 32H24.3952C24.5556 32 24.7094 31.9368 24.8228 31.8243C24.9363 31.7117 25 31.5591 25 31.4V2.6C25 2.44087 24.9363 2.28826 24.8228 2.17574C24.7094 2.06321 24.5556 2 24.3952 2ZM9.27419 1.2H15.3226V3.6H9.27419V1.2ZM23.7903 30.8H1.20968V3.2H8.06452V4.2C8.06452 4.35913 8.12824 4.51174 8.24167 4.62426C8.3551 4.73679 8.50894 4.8 8.66935 4.8H15.9274C16.0878 4.8 16.2417 4.73679 16.3551 4.62426C16.4685 4.51174 16.5323 4.35913 16.5323 4.2V3.2H23.7903V30.8Z" fill="white"/>
<path d="M5.44323 11.2002H3.4271C3.26669 11.2002 3.11285 11.2634 2.99942 11.3759C2.88599 11.4885 2.82227 11.6411 2.82227 11.8002C2.82227 11.9593 2.88599 12.1119 2.99942 12.2245C3.11285 12.337 3.26669 12.4002 3.4271 12.4002H5.44323C5.60365 12.4002 5.75749 12.337 5.87092 12.2245C5.98435 12.1119 6.04807 11.9593 6.04807 11.8002C6.04807 11.6411 5.98435 11.4885 5.87092 11.3759C5.75749 11.2634 5.60365 11.2002 5.44323 11.2002Z" fill="white"/>
<path d="M8.26597 11.2002C8.10556 11.2002 7.95171 11.2634 7.83829 11.3759C7.72486 11.4885 7.66113 11.6411 7.66113 11.8002C7.66113 11.9593 7.72486 12.1119 7.83829 12.2245C7.95171 12.337 8.10556 12.4002 8.26597 12.4002H21.5724C21.7328 12.4002 21.8867 12.337 22.0001 12.2245C22.1135 12.1119 22.1773 11.9593 22.1773 11.8002C22.1773 11.6411 22.1135 11.4885 22.0001 11.3759C21.8867 11.2634 21.7328 11.2002 21.5724 11.2002H8.26597Z" fill="white"/>
<path d="M5.44323 16.4H3.4271C3.26669 16.4 3.11285 16.4632 2.99942 16.5757C2.88599 16.6882 2.82227 16.8408 2.82227 17C2.82227 17.1591 2.88599 17.3117 2.99942 17.4242C3.11285 17.5368 3.26669 17.6 3.4271 17.6H5.44323C5.60365 17.6 5.75749 17.5368 5.87092 17.4242C5.98435 17.3117 6.04807 17.1591 6.04807 17C6.04807 16.8408 5.98435 16.6882 5.87092 16.5757C5.75749 16.4632 5.60365 16.4 5.44323 16.4V16.4Z" fill="white"/>
<path d="M21.5724 16.4H8.26597C8.10556 16.4 7.95171 16.4632 7.83829 16.5757C7.72486 16.6882 7.66113 16.8408 7.66113 17C7.66113 17.1591 7.72486 17.3117 7.83829 17.4242C7.95171 17.5368 8.10556 17.6 8.26597 17.6H21.5724C21.7328 17.6 21.8867 17.5368 22.0001 17.4242C22.1135 17.3117 22.1773 17.1591 22.1773 17C22.1773 16.8408 22.1135 16.6882 22.0001 16.5757C21.8867 16.4632 21.7328 16.4 21.5724 16.4V16.4Z" fill="white"/>
<path d="M5.44323 21.6002H3.4271C3.26669 21.6002 3.11285 21.6634 2.99942 21.776C2.88599 21.8885 2.82227 22.0411 2.82227 22.2002C2.82227 22.3593 2.88599 22.512 2.99942 22.6245C3.11285 22.737 3.26669 22.8002 3.4271 22.8002H5.44323C5.60365 22.8002 5.75749 22.737 5.87092 22.6245C5.98435 22.512 6.04807 22.3593 6.04807 22.2002C6.04807 22.0411 5.98435 21.8885 5.87092 21.776C5.75749 21.6634 5.60365 21.6002 5.44323 21.6002Z" fill="white"/>
<path d="M21.5724 21.6002H8.26597C8.10556 21.6002 7.95171 21.6634 7.83829 21.776C7.72486 21.8885 7.66113 22.0411 7.66113 22.2002C7.66113 22.3593 7.72486 22.512 7.83829 22.6245C7.95171 22.737 8.10556 22.8002 8.26597 22.8002H21.5724C21.7328 22.8002 21.8867 22.737 22.0001 22.6245C22.1135 22.512 22.1773 22.3593 22.1773 22.2002C22.1773 22.0411 22.1135 21.8885 22.0001 21.776C21.8867 21.6634 21.7328 21.6002 21.5724 21.6002Z" fill="white"/>
</svg>
