<svg width="40" height="25" viewBox="0 0 40 25" fill="none" xmlns="http://www.w3.org/2000/svg">
<path d="M23.7738 11.2984C24.0734 11.0861 24.2201 10.7333 24.1559 10.3797L23.6308 7.39427L25.8589 5.27846C26.1235 5.02773 26.2173 4.65954 26.1035 4.31705C25.9893 3.97417 25.6906 3.72897 25.324 3.67677L22.2416 3.24095L20.8637 0.521244C20.6983 0.19972 20.3666 0.000398636 19.998 0.000398636C19.9968 0.000398636 19.9952 0.000398636 19.9939 0.000398636C19.6249 0.00198055 19.2949 0.202884 19.1327 0.524804L17.7565 3.24095L14.6753 3.67677C14.3078 3.72897 14.0087 3.97496 13.8949 4.31903C13.7815 4.66151 13.8758 5.0297 14.1396 5.27767L16.3689 7.39427L15.8422 10.3924C15.7796 10.7448 15.9238 11.0956 16.2193 11.3075C16.3892 11.4297 16.5896 11.4918 16.7908 11.4918C16.9395 11.4918 17.0887 11.4582 17.2269 11.3898L20.0634 9.99296L22.7541 11.3696C23.0829 11.5385 23.4739 11.5112 23.7738 11.2984ZM19.7972 8.80851L17.1131 10.1302L17.6122 7.28789C17.6459 7.09766 17.5809 6.90348 17.4391 6.76902L15.3333 4.76988L18.2446 4.35818C18.4409 4.3305 18.6108 4.20988 18.6986 4.03666L19.9992 1.47L21.2994 4.03666C21.3872 4.20988 21.5571 4.3305 21.7534 4.35818L24.666 4.76988L22.5606 6.76902C22.4188 6.90388 22.3537 7.09806 22.3875 7.28829L22.8837 10.1092L20.3496 8.81246C20.1781 8.72427 19.9712 8.72308 19.7972 8.80851Z" fill="white"/>
<path d="M39.9533 4.34207C39.8395 3.9984 39.5403 3.75281 39.1733 3.7006L36.0905 3.26479L34.7122 0.547054C34.548 0.224344 34.2164 0.024231 33.8469 0.024231C33.8461 0.024231 33.8453 0.024231 33.8445 0.024231C33.475 0.0250219 33.1442 0.225925 32.9816 0.548636L31.6054 3.26479L28.5229 3.701C28.1539 3.7532 27.8543 4.00038 27.7414 4.34563C27.6292 4.6893 27.7259 5.0567 27.9885 5.30032L30.2174 7.4185L29.6886 10.4202C29.6276 10.7737 29.7744 11.1245 30.0711 11.3357C30.2406 11.4563 30.4393 11.5172 30.6389 11.5172C30.7876 11.5172 30.9372 11.4832 31.075 11.4144L33.9115 10.0192L36.6042 11.3978C36.9342 11.5639 37.3244 11.535 37.624 11.3215C37.9219 11.1087 38.0674 10.7563 38.004 10.4044L37.4772 7.4189L39.7053 5.30269C39.9724 5.05196 40.0667 4.68456 39.9533 4.34207ZM36.4087 6.79285C36.2664 6.92771 36.2018 7.12229 36.2356 7.31212L36.7338 10.1354L34.1997 8.83788C34.0265 8.74929 33.8209 8.74771 33.6465 8.83353L30.9608 10.1548L31.4611 7.31212C31.4948 7.12189 31.4302 6.92771 31.288 6.79285L29.1834 4.79331L32.0935 4.38201C32.2898 4.35433 32.4597 4.23371 32.5475 4.06049L33.8473 1.49462L35.1487 4.06049C35.2365 4.23371 35.4064 4.35393 35.6027 4.38162L38.5141 4.79331L36.4087 6.79285Z" fill="white"/>
<path d="M9.92626 11.298C10.2262 11.0853 10.3725 10.7325 10.3079 10.3797L9.78278 7.39427L12.0109 5.27846C12.2759 5.02733 12.3702 4.65874 12.256 4.31586C12.1422 3.97338 11.8438 3.72858 11.478 3.67637L8.39479 3.24056L7.01574 0.520846C6.85032 0.199717 6.51907 0 6.15043 0C6.14962 0 6.1488 0 6.14799 0C5.77935 0.000790958 5.44851 0.201299 5.28512 0.523219V0.523615L3.90851 3.24056L0.827283 3.67637C0.459048 3.72858 0.159908 3.97496 0.0465117 4.31942C-0.0660722 4.6627 0.0294412 5.03089 0.292814 5.27688L2.52214 7.39348L1.99377 10.3916C1.93117 10.7436 2.07546 11.094 2.37135 11.3064C2.54165 11.4289 2.74202 11.491 2.94402 11.491C3.09237 11.491 3.24194 11.4574 3.38013 11.389L6.21668 9.99217L8.90569 11.3688C9.23612 11.5389 9.62671 11.5112 9.92626 11.298ZM5.95087 8.8085L3.26552 10.131L3.76585 7.28828C3.79958 7.09806 3.73455 6.90348 3.5927 6.76902L1.48653 4.76987L4.39664 4.35818C4.59295 4.3305 4.76284 4.20988 4.85063 4.03666L6.15124 1.4696L7.45307 4.03666C7.54086 4.20988 7.71075 4.3301 7.90706 4.35778L10.8184 4.76948L8.71263 6.76862C8.57078 6.90348 8.50575 7.09766 8.53948 7.28789L9.03575 10.1088L6.50362 8.81246C6.33129 8.72427 6.12482 8.72308 5.95087 8.8085Z" fill="white"/>
<path d="M18.4013 17.1606L15.3189 16.7264L13.9402 14.0059C13.7748 13.6856 13.4435 13.487 13.0757 13.487C13.0749 13.487 13.0741 13.487 13.0733 13.487C12.705 13.4878 12.3746 13.6875 12.2112 14.0083C12.2108 14.0087 12.2104 14.0091 12.2104 14.0099L10.8338 16.7264L7.74892 17.1614C7.38149 17.2156 7.08276 17.4636 6.97058 17.8084C6.85922 18.1505 6.95473 18.5171 7.21689 18.7623L9.44702 20.8789L8.91906 23.8779C8.85687 24.2298 9.00034 24.5798 9.29501 24.7922C9.46491 24.9148 9.66528 24.9773 9.86769 24.9773C10.016 24.9773 10.1652 24.9437 10.3042 24.8756L13.1408 23.4776L15.8314 24.8543C16.1606 25.022 16.55 24.9955 16.8503 24.7831C17.1495 24.5715 17.297 24.2195 17.234 23.8652L16.7073 20.8781L18.9341 18.7639C19.1991 18.5148 19.2943 18.1478 19.1817 17.8057C19.0695 17.4624 18.772 17.2152 18.4013 17.1606ZM15.6383 20.2533C15.4961 20.3881 15.4314 20.5823 15.4652 20.7725L15.9627 23.5943L13.4273 22.2971C13.255 22.2085 13.0485 22.207 12.8741 22.2932L10.19 23.6156L10.6903 20.7725C10.7241 20.5823 10.659 20.3881 10.5168 20.2533L8.41019 18.2541L11.3211 17.8436C11.5178 17.8159 11.6877 17.6957 11.7755 17.5221L13.0757 14.9554L14.3763 17.5221C14.4641 17.6957 14.634 17.8159 14.8307 17.8436L17.7429 18.2541L15.6383 20.2533Z" fill="white"/>
<path d="M32.2495 17.1854L29.1671 16.7496L27.788 14.0283C27.6226 13.7084 27.2913 13.5098 26.9239 13.5098C26.9231 13.5098 26.9223 13.5098 26.9215 13.5098C26.5537 13.5106 26.2232 13.7103 26.059 14.0303C26.0586 14.0311 26.0586 14.0319 26.0582 14.0327L24.6816 16.7492L21.6 17.185C21.2334 17.2372 20.9338 17.4824 20.82 17.8257C20.7062 18.1682 20.8001 18.5372 21.0655 18.7875L23.294 20.9013L22.7673 23.8999C22.7051 24.251 22.8481 24.6011 23.142 24.8138C23.3119 24.9372 23.5131 25.0001 23.7167 25.0001C23.8642 25.0001 24.013 24.9669 24.1524 24.8996L26.9889 23.5016L29.6792 24.8767C30.0076 25.0456 30.399 25.0183 30.6989 24.8051C30.9985 24.5927 31.1448 24.2404 31.0806 23.8884L30.5551 20.9017L32.7848 18.7871C33.0494 18.5352 33.1425 18.1662 33.0282 17.8237C32.9144 17.482 32.6157 17.2372 32.2495 17.1854ZM29.4865 20.2765C29.3443 20.4113 29.2792 20.6055 29.313 20.7958L29.8096 23.6171L27.2755 22.3219C27.1032 22.2333 26.8967 22.2317 26.7223 22.3179L24.0378 23.6408L24.5373 20.7958C24.571 20.6055 24.506 20.4113 24.3638 20.2765L22.2576 18.2789L25.1697 17.8672C25.366 17.8395 25.5359 17.7189 25.6237 17.5457L26.9243 14.9787L28.2249 17.5457C28.3127 17.7189 28.4826 17.8395 28.6789 17.8672L31.5927 18.2789L29.4865 20.2765Z" fill="white"/>
</svg>
