<svg width="30" height="32" viewBox="0 0 30 32" fill="none" xmlns="http://www.w3.org/2000/svg">
<path d="M29.8393 3.28018C29.7261 3.17084 29.5752 3.09795 29.4243 3.09795H23.6904V0.546697C23.6904 0.255125 23.4263 0 23.1245 0H7.01657C6.71478 0 6.45072 0.255125 6.45072 0.546697V3.09795H0.565853C0.414959 3.09795 0.264065 3.17084 0.150894 3.28018C0.0377237 3.38952 0 3.53531 0 3.68109C0 3.79043 0.113171 6.12301 0.980811 8.82005C2.18796 12.4282 4.22503 14.9795 6.94112 16.1458C7.84649 19.0615 9.92128 21.3576 12.5242 22.2688V22.3781C12.5242 25.4032 10.1476 27.8087 7.09202 27.8087C6.79023 27.8087 6.52617 28.0638 6.52617 28.3554V31.4533C6.52617 31.7449 6.79023 32 7.09202 32H23.1245C23.4263 32 23.6904 31.7449 23.6904 31.4533V28.3554C23.6904 28.0638 23.4263 27.8087 23.1245 27.8087C20.0312 27.8087 17.5037 25.3667 17.5037 22.3781V22.3052C20.2198 21.3941 22.3323 19.0615 23.2377 16.0729C25.8406 14.8702 27.8399 12.3554 29.0094 8.82005C29.9147 6.12301 29.9902 3.75399 29.9902 3.68109C30.0279 3.53531 29.9525 3.38952 29.8393 3.28018ZM1.16943 4.19134H6.45072V12.9385C6.45072 13.5581 6.48844 14.1412 6.60161 14.7244C2.30113 12.246 1.35805 6.08656 1.16943 4.19134ZM22.5587 28.8656V30.8702H7.65787V28.8656C10.9775 28.6105 13.5427 25.9499 13.6182 22.5604C14.0709 22.6333 14.5613 22.7062 15.0517 22.7062C15.5044 22.7062 15.957 22.6697 16.372 22.5968C16.5229 25.9134 19.2013 28.6105 22.5587 28.8656ZM16.5606 21.467C16.0702 21.5763 15.5798 21.6492 15.0894 21.6492C14.5235 21.6492 13.9577 21.5763 13.4296 21.4305C13.3164 21.3941 13.1278 21.3212 13.0523 21.3212C9.92128 20.3007 7.58242 16.9476 7.58242 12.9749V1.12984H22.5587V3.31663V4.00911V12.9749C22.5587 16.9476 20.2198 20.3007 17.051 21.3212M23.5772 14.6515C23.6526 14.1048 23.7281 13.5216 23.7281 12.9385V4.19134H28.8585C28.6699 6.08656 27.7645 12.0638 23.5772 14.6515Z" fill="white"/>
<path d="M20.5215 7.65363L17.4282 7.21627L16.0325 4.48279C15.8816 4.19122 15.542 3.97254 15.2025 3.97254C14.863 3.97254 14.5235 4.15477 14.3726 4.48279L12.9768 7.21627L9.88352 7.65363C9.54401 7.69008 9.24222 7.9452 9.12905 8.27322C9.01588 8.60124 9.09133 8.9657 9.35539 9.18438L11.6188 11.2983L11.0907 14.2869C11.0152 14.6149 11.1661 14.9429 11.4679 15.1616C11.6188 15.2709 11.8074 15.3438 12.0338 15.3438C12.1847 15.3438 12.3356 15.3074 12.4487 15.2345L15.3157 13.8495L18.0318 15.2345C18.3336 15.3803 18.7108 15.3803 19.0126 15.1616C19.3144 14.9429 19.4276 14.6149 19.3898 14.2869L18.8617 11.2983L21.1251 9.18438C21.3892 8.92926 21.4646 8.60124 21.3515 8.27322C21.1628 7.9452 20.8988 7.69008 20.5215 7.65363ZM17.8055 10.7151C17.6546 10.8245 17.6168 11.0067 17.6546 11.1889L18.1827 14.0682L15.5798 12.7561C15.4289 12.6832 15.2403 12.6832 15.0516 12.7561L12.2601 14.1047L12.7882 11.1889C12.826 11.0067 12.7505 10.8245 12.6373 10.7151L10.4871 8.67413L13.4673 8.23677C13.6559 8.20033 13.8068 8.09099 13.8822 7.9452L15.2025 5.32106L16.5229 7.9452C16.5983 8.09099 16.7492 8.23677 16.9378 8.23677L19.918 8.67413L17.8055 10.7151Z" fill="white"/>
</svg>
